<?xml version="1.0" encoding="UTF-8"?>
<svg id="Layer_2" xmlns="http://www.w3.org/2000/svg" viewBox="0 0 84.46 59.28">
  <defs>
    <style>
      .cls-1 {
        fill: #1e7bb6;
      }

      .cls-2 {
        fill: #1bb680;
      }

      .cls-3 {
        fill: #2b2c79;
      }

      .cls-4 {
        fill: #1ab4b4;
      }
    </style>
  </defs>
  <g id="Layer_1-2" data-name="Layer_1">
    <g>
      <path class="cls-3" d="M19.15,14.83l-5.66,7.37c-.49.64.22,1.48.94,1.12,2.03-1.01,4.18-1.48,6.52-1.48,9.36,0,15.77,7.42,15.77,18.58s-6.62,18.87-16.27,18.87c-3.11,0-6.02-.8-8.25-2.54-.97-.76-2.39-.23-2.61.98h0c-.09.49-.51.84-1.01.84H1.11c-.61,0-1.11-.5-1.11-1.11V7.29c0-.71.58-1.29,1.29-1.29h13.51c4.55,0,7.12,5.22,4.35,8.83ZM9.79,40.63c0,5.62,2.81,9.65,7.99,9.65s7.88-3.74,7.88-9.72-2.77-9.72-7.66-9.72-8.21,3.89-8.21,9.79Z"/>
      <path class="cls-3" d="M41.81,22.62c1.15,0,2.09-.94,2.09-2.09v-1.22c0-8.21,5.47-13.25,14.33-13.25,1.12,0,2.27.08,3.34.22s1.84,1.02,1.84,2.08v5.33c0,1.24-1.07,2.19-2.3,2.08-.38-.03-.77-.05-1.16-.05-2.66,0-5.54.86-5.54,4.82h0c0,1.15.94,2.09,2.09,2.09h10.82c5.99,0,10.85,4.86,10.85,10.85v23.06c0,1.15-.94,2.09-2.09,2.09h-6.33c-1.15,0-2.09-.94-2.09-2.09v-22.18c0-1.15-.94-2.09-2.09-2.09h-9.07c-1.15,0-2.09.94-2.09,2.09v22.18c0,1.15-.94,2.09-2.09,2.09h-6.34c-1.15,0-2.09-.94-2.09-2.09v-22.18c0-1.15-.94-2.09-2.09-2.09h-2.3c-1.15,0-2.09-.94-2.09-2.09v-5.47c0-1.15.94-2.09,2.09-2.09h2.3ZM72.14,6.1c4.19-.35,6.65,2.1,6.29,6.29-.2,2.34-2.39,4.53-4.73,4.73-4.19.36-6.65-2.11-6.29-6.29.2-2.34,2.39-4.53,4.73-4.73Z"/>
    </g>
    <g>
      <path class="cls-1" d="M21.15,12.83l-5.66,7.37c-.49.64.22,1.48.94,1.12,2.03-1.01,4.18-1.48,6.52-1.48,9.36,0,15.77,7.42,15.77,18.58s-6.62,18.87-16.27,18.87c-3.11,0-6.02-.8-8.25-2.54-.97-.76-2.39-.23-2.61.98h0c-.09.49-.51.84-1.01.84H3.11c-.61,0-1.11-.5-1.11-1.11V5.29c0-.71.58-1.29,1.29-1.29h13.51c4.55,0,7.12,5.22,4.35,8.83ZM11.79,38.63c0,5.62,2.81,9.65,7.99,9.65s7.88-3.74,7.88-9.72-2.77-9.72-7.66-9.72-8.21,3.89-8.21,9.79Z"/>
      <path class="cls-1" d="M43.81,20.62c1.15,0,2.09-.94,2.09-2.09v-1.22c0-8.21,5.47-13.25,14.33-13.25,1.12,0,2.27.08,3.34.22s1.84,1.02,1.84,2.08v5.33c0,1.24-1.07,2.19-2.3,2.08-.38-.03-.77-.05-1.16-.05-2.66,0-5.54.86-5.54,4.82h0c0,1.15.94,2.09,2.09,2.09h10.82c5.99,0,10.85,4.86,10.85,10.85v23.06c0,1.15-.94,2.09-2.09,2.09h-6.33c-1.15,0-2.09-.94-2.09-2.09v-22.18c0-1.15-.94-2.09-2.09-2.09h-9.07c-1.15,0-2.09.94-2.09,2.09v22.18c0,1.15-.94,2.09-2.09,2.09h-6.34c-1.15,0-2.09-.94-2.09-2.09v-22.18c0-1.15-.94-2.09-2.09-2.09h-2.3c-1.15,0-2.09-.94-2.09-2.09v-5.47c0-1.15.94-2.09,2.09-2.09h2.3ZM74.14,4.1c4.19-.35,6.65,2.1,6.29,6.29-.2,2.34-2.39,4.53-4.73,4.73-4.19.36-6.65-2.11-6.29-6.29.2-2.34,2.39-4.53,4.73-4.73Z"/>
    </g>
    <g>
      <path class="cls-4" d="M23.15,10.83l-5.66,7.37c-.49.64.22,1.48.94,1.12,2.03-1.01,4.18-1.48,6.52-1.48,9.36,0,15.77,7.42,15.77,18.58s-6.62,18.87-16.27,18.87c-3.11,0-6.02-.8-8.25-2.54-.97-.76-2.39-.23-2.61.98h0c-.09.49-.51.84-1.01.84h-7.46c-.61,0-1.11-.5-1.11-1.11V3.29c0-.71.58-1.29,1.29-1.29h13.51c4.55,0,7.12,5.22,4.35,8.83ZM13.79,36.63c0,5.62,2.81,9.65,7.99,9.65s7.88-3.74,7.88-9.72-2.77-9.72-7.66-9.72-8.21,3.89-8.21,9.79Z"/>
      <path class="cls-4" d="M45.81,18.62c1.15,0,2.09-.94,2.09-2.09v-1.22c0-8.21,5.47-13.25,14.33-13.25,1.12,0,2.27.08,3.34.22s1.84,1.02,1.84,2.08v5.33c0,1.24-1.07,2.19-2.3,2.08-.38-.03-.77-.05-1.16-.05-2.66,0-5.54.86-5.54,4.82h0c0,1.15.94,2.09,2.09,2.09h10.82c5.99,0,10.85,4.86,10.85,10.85v23.06c0,1.15-.94,2.09-2.09,2.09h-6.33c-1.15,0-2.09-.94-2.09-2.09v-22.18c0-1.15-.94-2.09-2.09-2.09h-9.07c-1.15,0-2.09.94-2.09,2.09v22.18c0,1.15-.94,2.09-2.09,2.09h-6.34c-1.15,0-2.09-.94-2.09-2.09v-22.18c0-1.15-.94-2.09-2.09-2.09h-2.3c-1.15,0-2.09-.94-2.09-2.09v-5.47c0-1.15.94-2.09,2.09-2.09h2.3ZM76.14,2.1c4.19-.35,6.65,2.1,6.29,6.29-.2,2.34-2.39,4.53-4.73,4.73-4.19.36-6.65-2.11-6.29-6.29.2-2.34,2.39-4.53,4.73-4.73Z"/>
    </g>
    <g>
      <path class="cls-2" d="M25.15,8.83l-5.66,7.37c-.49.64.22,1.48.94,1.12,2.03-1.01,4.18-1.48,6.52-1.48,9.36,0,15.77,7.42,15.77,18.58s-6.62,18.87-16.27,18.87c-3.11,0-6.02-.8-8.25-2.54-.97-.76-2.39-.23-2.61.98h0c-.09.49-.51.84-1.01.84h-7.46c-.61,0-1.11-.5-1.11-1.11V1.29c0-.71.58-1.29,1.29-1.29h13.51c4.55,0,7.12,5.22,4.35,8.83ZM15.79,34.63c0,5.62,2.81,9.65,7.99,9.65s7.88-3.74,7.88-9.72-2.77-9.72-7.66-9.72-8.21,3.89-8.21,9.79Z"/>
      <path class="cls-2" d="M47.81,16.62c1.15,0,2.09-.94,2.09-2.09v-1.22C49.9,5.1,55.37.06,64.23.06c1.12,0,2.27.08,3.34.22s1.84,1.02,1.84,2.08v5.33c0,1.24-1.07,2.19-2.3,2.08-.38-.03-.77-.05-1.16-.05-2.66,0-5.54.86-5.54,4.82h0c0,1.15.94,2.09,2.09,2.09h10.82c5.99,0,10.85,4.86,10.85,10.85v23.06c0,1.15-.94,2.09-2.09,2.09h-6.33c-1.15,0-2.09-.94-2.09-2.09v-22.18c0-1.15-.94-2.09-2.09-2.09h-9.07c-1.15,0-2.09.94-2.09,2.09v22.18c0,1.15-.94,2.09-2.09,2.09h-6.34c-1.15,0-2.09-.94-2.09-2.09v-22.18c0-1.15-.94-2.09-2.09-2.09h-2.3c-1.15,0-2.09-.94-2.09-2.09v-5.47c0-1.15.94-2.09,2.09-2.09h2.3ZM78.14.1c4.19-.35,6.65,2.1,6.29,6.29-.2,2.34-2.39,4.53-4.73,4.73-4.19.36-6.65-2.11-6.29-6.29.2-2.34,2.39-4.53,4.73-4.73Z"/>
    </g>
  </g>
</svg>